<mxfile host="65bd71144e">
    <diagram id="z2f2P5NkxSe85gBTfOub" name="Hotel Physical Schema">
        <mxGraphModel dx="861" dy="489" grid="1" gridSize="10" guides="1" tooltips="1" connect="1" arrows="1" fold="1" page="1" pageScale="1" pageWidth="850" pageHeight="1100" math="0" shadow="0">
            <root>
                <mxCell id="0"/>
                <mxCell id="1" parent="0"/>
                <mxCell id="2" value="HOTEL&#xa;----------------&#xa;Hotel_Id (PK)&#xa;Hotel_name" style="shape=rectangle;whiteSpace=wrap;rounded=1;fillColor=#D9EAD3;" parent="1" vertex="1">
                    <mxGeometry x="840" y="50" width="180" height="80" as="geometry"/>
                </mxCell>
                <mxCell id="3" value="EMPLOYEE&#xa;----------------&#xa;Employee_Id (PK)&#xa;Employee_Name&#xa;Employee_Speciality&#xa;Hotel_Id (FK)" style="shape=rectangle;whiteSpace=wrap;rounded=1;fillColor=#F4CCCC;" parent="1" vertex="1">
                    <mxGeometry x="170" y="10" width="200" height="100" as="geometry"/>
                </mxCell>
                <mxCell id="4" value="ROOM&#xa;----------------&#xa;Room_Id (PK)&#xa;Floor&#xa;Type_Id (FK)" style="shape=rectangle;whiteSpace=wrap;rounded=1;fillColor=#C9DAF8;" parent="1" vertex="1">
                    <mxGeometry x="20" y="330" width="180" height="80" as="geometry"/>
                </mxCell>
                <mxCell id="7" value="ROOM_CATEGORY&#xa;----------------&#xa;Room_Id (FK)&#xa;Category_Id (FK)&#xa;(PK: Room_Id, Category_Id)" style="shape=rectangle;whiteSpace=wrap;rounded=1;fillColor=#D5A6BD;" parent="1" vertex="1">
                    <mxGeometry x="760" y="310" width="200" height="80" as="geometry"/>
                </mxCell>
                <mxCell id="8" style="edgeStyle=orthogonalEdgeStyle;entryX=1;entryY=0.25;entryDx=0;entryDy=0;" parent="1" source="6" target="2" edge="1">
                    <mxGeometry relative="1" as="geometry"/>
                </mxCell>
                <mxCell id="10" style="edgeStyle=orthogonalEdgeStyle;" parent="1" source="5" target="7" edge="1">
                    <mxGeometry relative="1" as="geometry"/>
                </mxCell>
                <mxCell id="11" value="" style="edgeStyle=orthogonalEdgeStyle;" parent="1" source="4" target="5" edge="1">
                    <mxGeometry relative="1" as="geometry">
                        <mxPoint x="200" y="370" as="sourcePoint"/>
                        <mxPoint x="760" y="350" as="targetPoint"/>
                    </mxGeometry>
                </mxCell>
                <mxCell id="5" value="CATEGORY&#xa;----------------&#xa;Category_Id (PK)&#xa;Category_Name&#xa;Price&#xa;Beds_numbers" style="shape=rectangle;whiteSpace=wrap;rounded=1;fillColor=#FFF2CC;" parent="1" vertex="1">
                    <mxGeometry x="360" y="300" width="200" height="100" as="geometry"/>
                </mxCell>
                <mxCell id="12" value="" style="edgeStyle=orthogonalEdgeStyle;exitX=1.015;exitY=0.32;exitDx=0;exitDy=0;exitPerimeter=0;" edge="1" parent="1" source="3" target="6">
                    <mxGeometry relative="1" as="geometry">
                        <mxPoint x="200" y="70" as="sourcePoint"/>
                        <mxPoint x="610" y="140" as="targetPoint"/>
                    </mxGeometry>
                </mxCell>
                <mxCell id="6" value="WORKS&#xa;----------------&#xa;Employee_Id (FK)&#xa;Hotel_Id (FK)&#xa;(PK: Employee_Id, Hotel_Id)" style="shape=rectangle;whiteSpace=wrap;rounded=1;fillColor=#EAD1DC;" parent="1" vertex="1">
                    <mxGeometry x="600" y="20" width="200" height="80" as="geometry"/>
                </mxCell>
            </root>
        </mxGraphModel>
    </diagram>
</mxfile>